<svg width="176" height="176" viewBox="0 0 176 176" fill="none" xmlns="http://www.w3.org/2000/svg">
<g clip-path="url(#clip0_11_28)">
<path fill-rule="evenodd" clip-rule="evenodd" d="M79.8643 187.329C85.1118 188.189 90.1146 184.792 91.2507 179.598L124.524 27.4718C125.748 21.8736 122.027 16.3936 116.372 15.4668L75.5078 8.76945C69.8528 7.84263 64.5771 11.8482 63.9505 17.5444L46.9232 172.333C46.3417 177.618 49.9984 182.434 55.2459 183.294L79.8643 187.329ZM74.6255 244.829C80.0756 245.722 85.2179 242.028 86.1111 236.578L90.4209 210.281C91.3142 204.831 87.6201 199.688 82.1699 198.795L49.4009 193.425C43.9507 192.531 38.8084 196.225 37.9152 201.676L33.6054 227.972C32.7122 233.422 36.4063 238.565 41.8564 239.458L74.6255 244.829ZM9.14787 47.9107C10.0235 42.5677 14.9924 38.8921 20.3577 39.6184L39.082 42.1532C44.4584 42.881 48.2737 47.7633 47.6805 53.1563L44.9132 78.3126C44.2793 84.0746 38.8948 88.0922 33.1909 87.0591L13.2865 83.4539C7.91626 82.4812 4.31772 77.3824 5.2004 71.9966L9.14787 47.9107ZM163.391 98.6788C162.487 104.194 157.239 107.897 151.74 106.901L130.096 102.981C124.522 101.971 120.899 96.5381 122.109 91.0044L128.387 62.3016C129.5 57.2119 134.335 53.8298 139.498 54.5287L159.761 57.2719C165.342 58.0274 169.199 63.2409 168.288 68.7988L163.391 98.6788Z" fill="url(#paint0_linear_11_28)"/>
</g>
<defs>
<linearGradient id="paint0_linear_11_28" x1="-0.500005" y1="1.29944e-06" x2="177" y2="173" gradientUnits="userSpaceOnUse">
<stop stop-color="#36D1DC"/>
<stop offset="1" stop-color="#5B86E5"/>
</linearGradient>
<clipPath id="clip0_11_28">
<rect width="176" height="176" fill="white"/>
</clipPath>
</defs>
</svg>
